<?xml version="1.0" encoding="iso-8859-1"?>
<!-- Uploaded to: SVG Repo, www.svgrepo.com, Generator: SVG Repo Mixer Tools -->
<!DOCTYPE svg PUBLIC "-//W3C//DTD SVG 1.1//EN" "http://www.w3.org/Graphics/SVG/1.1/DTD/svg11.dtd">
<svg fill="#000000" height="800px" width="800px" version="1.1" id="Capa_1" xmlns="http://www.w3.org/2000/svg" xmlns:xlink="http://www.w3.org/1999/xlink" 
	 viewBox="0 0 456.349 456.349" xml:space="preserve">
<g>
	<circle cx="200.911" cy="367.915" r="8"/>
	<circle cx="255.447" cy="367.915" r="8"/>
	<path d="M234.048,372.727c-1.568,1.567-3.652,2.431-5.869,2.431s-4.302-0.864-5.87-2.432c-2.148-2.147-5.63-2.147-7.778,0
		c-2.148,2.148-2.148,5.63,0,7.778c3.646,3.646,8.493,5.653,13.648,5.653s10.002-2.008,13.647-5.654c2.148-2.148,2.148-5.63,0-7.778
		C239.678,370.578,236.196,370.579,234.048,372.727z"/>
	<path d="M280.972,301.816V52.793C280.972,23.683,257.289,0,228.178,0c-29.11,0-52.793,23.683-52.793,52.793v249.022
		c-21.897,16.957-34.356,43.326-33.453,71.109c0.715,21.996,9.799,42.72,25.58,58.354c15.779,15.633,36.586,24.527,58.589,25.045
		c0.702,0.017,1.4,0.025,2.099,0.025c22.677-0.001,44.01-8.675,60.271-24.557c16.768-16.377,26.001-38.302,26.001-61.737
		C314.472,343.414,302,318.117,280.972,301.816z M280.784,423.922c-14.625,14.284-33.966,21.896-54.424,21.404
		c-19.182-0.452-37.332-8.216-51.106-21.863c-13.775-13.647-21.704-31.723-22.328-50.897c-0.815-25.073,10.841-48.827,31.182-63.543
		c1.43-1.034,2.276-2.691,2.276-4.456V52.793c0-23.045,18.749-41.793,41.794-41.793c23.045,0,41.793,18.749,41.793,41.793v251.774
		c0,1.765,0.847,3.422,2.276,4.456c19.551,14.145,31.224,36.96,31.224,61.031C303.472,390.502,295.415,409.632,280.784,423.922z"/>
	<path d="M260.553,325.19l-10.534-7.621V52.793c0-12.043-9.798-21.841-21.841-21.841s-21.841,9.798-21.841,21.841v264.776
		l-10.534,7.621c-14.38,10.404-22.965,27.176-22.965,44.864c0,30.516,24.826,55.342,55.341,55.342s55.341-24.826,55.341-55.342
		C283.52,352.365,274.934,335.594,260.553,325.19z M228.178,41.952c5.978,0,10.841,4.863,10.841,10.841v222.325h-21.683V52.793
		C217.337,46.815,222.2,41.952,228.178,41.952z M228.179,414.396c-24.45,0-44.341-19.892-44.341-44.342
		c0-14.17,6.883-27.61,18.414-35.952l12.81-9.268c1.429-1.034,2.276-2.691,2.276-4.456v-34.26h21.683v34.26
		c0,1.765,0.847,3.422,2.276,4.456l12.81,9.268c11.53,8.342,18.414,21.782,18.414,35.952
		C272.52,394.504,252.629,414.396,228.179,414.396z"/>
	<path d="M128.679,369.521c0-20.974,6.447-41.026,18.645-57.989c1.773-2.466,1.212-5.903-1.254-7.676
		c-2.464-1.773-5.902-1.212-7.676,1.254c-13.551,18.846-20.714,41.119-20.714,64.411c0,23.563,7.319,46.05,21.167,65.032
		c1.077,1.476,2.75,2.259,4.448,2.259c1.125,0,2.259-0.344,3.237-1.057c2.454-1.791,2.992-5.231,1.202-7.685
		C135.268,410.983,128.679,390.737,128.679,369.521z"/>
	<path d="M317.966,305.111c-1.773-2.467-5.21-3.029-7.676-1.257c-2.467,1.772-3.03,5.209-1.257,7.676
		c12.192,16.968,18.637,37.021,18.637,57.99c0,21.217-6.588,41.462-19.053,58.548c-1.79,2.454-1.252,5.895,1.202,7.685
		c0.978,0.713,2.113,1.057,3.237,1.057c1.697,0,3.371-0.783,4.448-2.259c13.847-18.981,21.167-41.469,21.167-65.032
		C338.669,346.234,331.51,323.962,317.966,305.111z"/>
</g>
</svg>